<svg width="24" height="24" viewBox="0 0 24 24" fill="none" xmlns="http://www.w3.org/2000/svg">
<path d="M17.3903 0.0120105C17.3292 -0.0449892 15.1289 0.0345104 13.2142 1.77C11.2995 3.50399 11.5941 5.49298 11.6372 5.54398C11.6803 5.59498 14.3673 5.67448 16.0827 3.65699C17.798 1.6395 17.4513 0.0705102 17.3903 0.0120105ZM23.3427 17.6114C23.2565 17.4674 19.1667 15.7604 19.5475 12.4784C19.9282 9.19496 22.556 8.29497 22.5973 8.19747C22.6386 8.09997 21.525 7.01247 20.3449 6.46198C19.4785 6.07386 18.5196 5.85149 17.5376 5.81098C17.3436 5.80648 16.67 5.66848 15.2852 5.98498C14.3727 6.19348 12.3161 6.86848 11.7503 6.89548C11.1827 6.92248 9.49436 6.11248 7.67844 5.89798C6.51633 5.71048 5.28416 6.09448 4.40225 6.38998C3.52213 6.68398 1.84811 7.52097 0.677018 9.74546C-0.494077 11.9684 0.118413 15.4904 0.556676 16.5854C0.994938 17.6789 1.67927 19.4714 2.84319 20.7794C3.87777 22.2554 5.25004 23.2799 5.82301 23.6279C6.39599 23.9759 8.01253 24.2069 9.13333 23.7284C10.035 23.2664 11.6623 23.0009 12.3053 23.0204C12.9466 23.0399 14.2111 23.2514 15.5061 23.8289C16.5317 24.1244 17.5016 24.0014 18.4734 23.6714C19.4451 23.3399 20.8515 22.0829 22.4932 19.5344C23.1164 18.3494 23.4002 17.7089 23.3427 17.6114Z" fill="black"/>
<path d="M17.3903 0.0120105C17.3292 -0.0449892 15.1289 0.0345104 13.2142 1.77C11.2995 3.50399 11.5941 5.49298 11.6372 5.54398C11.6803 5.59498 14.3673 5.67448 16.0827 3.65699C17.798 1.6395 17.4513 0.0705102 17.3903 0.0120105ZM23.3427 17.6114C23.2565 17.4674 19.1667 15.7604 19.5475 12.4784C19.9282 9.19496 22.556 8.29497 22.5973 8.19747C22.6386 8.09997 21.525 7.01247 20.3449 6.46198C19.4785 6.07386 18.5196 5.85149 17.5376 5.81098C17.3436 5.80648 16.67 5.66848 15.2852 5.98498C14.3727 6.19348 12.3161 6.86848 11.7503 6.89548C11.1827 6.92248 9.49436 6.11248 7.67844 5.89798C6.51633 5.71048 5.28416 6.09448 4.40225 6.38998C3.52213 6.68398 1.84811 7.52097 0.677018 9.74546C-0.494077 11.9684 0.118413 15.4904 0.556676 16.5854C0.994938 17.6789 1.67927 19.4714 2.84319 20.7794C3.87777 22.2554 5.25004 23.2799 5.82301 23.6279C6.39599 23.9759 8.01253 24.2069 9.13333 23.7284C10.035 23.2664 11.6623 23.0009 12.3053 23.0204C12.9466 23.0399 14.2111 23.2514 15.5061 23.8289C16.5317 24.1244 17.5016 24.0014 18.4734 23.6714C19.4451 23.3399 20.8515 22.0829 22.4932 19.5344C23.1164 18.3494 23.4002 17.7089 23.3427 17.6114Z" fill="black"/>
</svg>
