<svg width="24" height="24"   viewBox="0 0 24 24" fill="none" xmlns="http://www.w3.org/2000/svg">
<path d="M8.13428 0.789432C5.80125 1.62131 3.78925 3.20024 2.39381 5.29431C0.998367 7.38838 0.293038 9.8872 0.381423 12.4237C0.469808 14.9603 1.34725 17.4008 2.88486 19.3869C4.42247 21.373 6.53921 22.8 8.92416 23.4582C10.8577 23.971 12.8835 23.9935 14.8273 23.5238C16.5883 23.1172 18.2163 22.2476 19.5521 21.0001C20.9423 19.662 21.9513 17.9597 22.4708 16.0763C23.0353 14.0282 23.1357 11.8743 22.7645 9.78006H11.9068V14.4094H18.1948C18.0692 15.1478 17.7999 15.8525 17.403 16.4814C17.0062 17.1102 16.49 17.6504 15.8854 18.0694C15.1176 18.5917 14.252 18.943 13.3442 19.1007C12.4339 19.2747 11.5001 19.2747 10.5897 19.1007C9.6669 18.9048 8.79399 18.5134 8.02665 17.9513C6.79375 17.0543 5.86801 15.7799 5.38153 14.3101C4.88696 12.8126 4.88696 11.1893 5.38153 9.69193C5.72781 8.64234 6.30027 7.68669 7.05616 6.89631C7.92119 5.97521 9.01635 5.3168 10.2215 4.99332C11.4266 4.66985 12.6951 4.6938 13.8879 5.06256C14.8197 5.35641 15.6718 5.87008 16.3761 6.56256C17.0851 5.83756 17.7929 5.11068 18.4995 4.38193C18.8643 3.99006 19.262 3.61693 19.6214 3.21568C18.5461 2.18728 17.2839 1.387 15.9073 0.860682C13.4003 -0.0749615 10.6571 -0.100106 8.13428 0.789432Z" fill="white"/>
<path d="M8.13432 0.789367C10.657 -0.100776 13.4001 -0.0762934 15.9073 0.858742C17.2842 1.38864 18.5458 2.19277 19.6196 3.22499C19.2548 3.62624 18.8698 4.00124 18.4977 4.39124C17.7899 5.11749 17.0827 5.84124 16.3761 6.56249C15.6718 5.87001 14.8197 5.35635 13.8879 5.06249C12.6956 4.69244 11.4271 4.66711 10.2216 4.98926C9.01618 5.31141 7.92036 5.96861 7.05438 6.88874C6.29849 7.67912 5.72603 8.63477 5.37975 9.68437L1.59814 6.67499C2.95173 3.91604 5.29538 1.80566 8.13432 0.789367Z" fill="#E33629"/>
<path d="M0.59485 9.65605C0.797958 8.62063 1.13541 7.61792 1.59817 6.6748L5.37978 9.69168C4.88521 11.1891 4.88521 12.8124 5.37978 14.3098C4.11985 15.3098 2.85931 16.3148 1.59817 17.3248C0.440067 14.9554 0.0868649 12.2557 0.59485 9.65605Z" fill="#F8BD00"/>
<path d="M11.9066 9.77832H22.7643C23.1355 11.8726 23.0351 14.0264 22.4706 16.0746C21.9512 17.958 20.9421 19.6602 19.5519 20.9983C18.3315 20.0196 17.1056 19.0483 15.8852 18.0696C16.4902 17.6501 17.0067 17.1094 17.4035 16.4798C17.8004 15.8503 18.0694 15.1448 18.1947 14.4058H11.9066C11.9047 12.8646 11.9066 11.3214 11.9066 9.77832Z" fill="#587DBD"/>
<path d="M1.59619 17.3251C2.85733 16.3251 4.11787 15.3201 5.3778 14.3101C5.86524 15.7804 6.7923 17.0549 8.02656 17.9513C8.79629 18.5107 9.67109 18.899 10.5951 19.0913C11.5054 19.2653 12.4392 19.2653 13.3496 19.0913C14.2574 18.9336 15.123 18.5823 15.8908 18.0601C17.1112 19.0388 18.337 20.0101 19.5574 20.9888C18.2219 22.237 16.5939 23.1073 14.8327 23.5144C12.8889 23.9841 10.8631 23.9616 8.92955 23.4488C7.40031 23.0291 5.9719 22.2893 4.73385 21.2757C3.42356 20.2062 2.35331 18.8587 1.59619 17.3251Z" fill="#319F43"/>
</svg>
