<svg width="24" height="24"   viewBox="0 0 191 195" fill="none" xmlns="http://www.w3.org/2000/svg">
<path d="M7.64001 0H0V7.78765H7.64001V0Z" fill="black"/>
<path d="M15.2797 0H7.63965V7.78765H15.2797V0Z" fill="black"/>
<path d="M22.9202 0H15.2803V7.78765H22.9202V0Z" fill="black"/>
<path d="M30.5599 0H22.9199V7.78765H30.5599V0Z" fill="black"/>
<path d="M38.2001 0H30.5601V7.78765H38.2001V0Z" fill="black"/>
<path d="M45.8397 0H38.1997V7.78765H45.8397V0Z" fill="black"/>
<path d="M53.4798 0H45.8398V7.78765H53.4798V0Z" fill="black"/>
<path d="M68.7596 0H61.1196V7.78765H68.7596V0Z" fill="black"/>
<path d="M76.4003 0H68.7603V7.78765H76.4003V0Z" fill="black"/>
<path d="M84.0399 0H76.3999V7.78765H84.0399V0Z" fill="black"/>
<path d="M91.68 0H84.04V7.78765H91.68V0Z" fill="black"/>
<path d="M106.96 0H99.3198V7.78765H106.96V0Z" fill="black"/>
<path d="M129.88 0H122.24V7.78765H129.88V0Z" fill="black"/>
<path d="M145.16 0H137.52V7.78765H145.16V0Z" fill="black"/>
<path d="M152.8 0H145.16V7.78765H152.8V0Z" fill="black"/>
<path d="M160.44 0H152.8V7.78765H160.44V0Z" fill="black"/>
<path d="M168.079 0H160.439V7.78765H168.079V0Z" fill="black"/>
<path d="M175.72 0H168.08V7.78765H175.72V0Z" fill="black"/>
<path d="M183.36 0H175.72V7.78765H183.36V0Z" fill="black"/>
<path d="M191 0H183.36V7.78765H191V0Z" fill="black"/>
<path d="M7.64001 7.7876H0V15.5752H7.64001V7.7876Z" fill="black"/>
<path d="M53.4798 7.7876H45.8398V15.5752H53.4798V7.7876Z" fill="black"/>
<path d="M91.68 7.7876H84.04V15.5752H91.68V7.7876Z" fill="black"/>
<path d="M106.96 7.7876H99.3198V15.5752H106.96V7.7876Z" fill="black"/>
<path d="M129.88 7.7876H122.24V15.5752H129.88V7.7876Z" fill="black"/>
<path d="M145.16 7.7876H137.52V15.5752H145.16V7.7876Z" fill="black"/>
<path d="M191 7.7876H183.36V15.5752H191V7.7876Z" fill="black"/>
<path d="M7.64001 15.5752H0V23.3628H7.64001V15.5752Z" fill="black"/>
<path d="M22.9202 15.5752H15.2803V23.3628H22.9202V15.5752Z" fill="black"/>
<path d="M30.5599 15.5752H22.9199V23.3628H30.5599V15.5752Z" fill="black"/>
<path d="M38.2001 15.5752H30.5601V23.3628H38.2001V15.5752Z" fill="black"/>
<path d="M53.4798 15.5752H45.8398V23.3628H53.4798V15.5752Z" fill="black"/>
<path d="M99.3201 15.5752H91.6802V23.3628H99.3201V15.5752Z" fill="black"/>
<path d="M106.96 15.5752H99.3198V23.3628H106.96V15.5752Z" fill="black"/>
<path d="M114.6 15.5752H106.96V23.3628H114.6V15.5752Z" fill="black"/>
<path d="M122.24 15.5752H114.6V23.3628H122.24V15.5752Z" fill="black"/>
<path d="M145.16 15.5752H137.52V23.3628H145.16V15.5752Z" fill="black"/>
<path d="M160.44 15.5752H152.8V23.3628H160.44V15.5752Z" fill="black"/>
<path d="M168.079 15.5752H160.439V23.3628H168.079V15.5752Z" fill="black"/>
<path d="M175.72 15.5752H168.08V23.3628H175.72V15.5752Z" fill="black"/>
<path d="M191 15.5752H183.36V23.3628H191V15.5752Z" fill="black"/>
<path d="M7.64001 23.3633H0V31.1509H7.64001V23.3633Z" fill="black"/>
<path d="M22.9202 23.3628H15.2803V31.1504H22.9202V23.3628Z" fill="black"/>
<path d="M30.5599 23.3628H22.9199V31.1504H30.5599V23.3628Z" fill="black"/>
<path d="M38.2001 23.3628H30.5601V31.1504H38.2001V23.3628Z" fill="black"/>
<path d="M53.4798 23.3628H45.8398V31.1504H53.4798V23.3628Z" fill="black"/>
<path d="M76.4003 23.3628H68.7603V31.1504H76.4003V23.3628Z" fill="black"/>
<path d="M84.0399 23.3628H76.3999V31.1504H84.0399V23.3628Z" fill="black"/>
<path d="M91.68 23.3628H84.04V31.1504H91.68V23.3628Z" fill="black"/>
<path d="M99.3201 23.3628H91.6802V31.1504H99.3201V23.3628Z" fill="black"/>
<path d="M106.96 23.3628H99.3198V31.1504H106.96V23.3628Z" fill="black"/>
<path d="M122.24 23.3628H114.6V31.1504H122.24V23.3628Z" fill="black"/>
<path d="M129.88 23.3628H122.24V31.1504H129.88V23.3628Z" fill="black"/>
<path d="M145.16 23.3628H137.52V31.1504H145.16V23.3628Z" fill="black"/>
<path d="M160.44 23.3628H152.8V31.1504H160.44V23.3628Z" fill="black"/>
<path d="M168.079 23.3628H160.439V31.1504H168.079V23.3628Z" fill="black"/>
<path d="M175.72 23.3628H168.08V31.1504H175.72V23.3628Z" fill="black"/>
<path d="M191 23.3628H183.36V31.1504H191V23.3628Z" fill="black"/>
<path d="M7.64001 31.1509H0V38.9385H7.64001V31.1509Z" fill="black"/>
<path d="M22.9202 31.1509H15.2803V38.9385H22.9202V31.1509Z" fill="black"/>
<path d="M30.5599 31.1509H22.9199V38.9385H30.5599V31.1509Z" fill="black"/>
<path d="M38.2001 31.1509H30.5601V38.9385H38.2001V31.1509Z" fill="black"/>
<path d="M53.4798 31.1509H45.8398V38.9385H53.4798V31.1509Z" fill="black"/>
<path d="M68.7596 31.1509H61.1196V38.9385H68.7596V31.1509Z" fill="black"/>
<path d="M99.3201 31.1509H91.6802V38.9385H99.3201V31.1509Z" fill="black"/>
<path d="M106.96 31.1509H99.3198V38.9385H106.96V31.1509Z" fill="black"/>
<path d="M114.6 31.1509H106.96V38.9385H114.6V31.1509Z" fill="black"/>
<path d="M145.16 31.1509H137.52V38.9385H145.16V31.1509Z" fill="black"/>
<path d="M160.44 31.1509H152.8V38.9385H160.44V31.1509Z" fill="black"/>
<path d="M168.079 31.1509H160.439V38.9385H168.079V31.1509Z" fill="black"/>
<path d="M175.72 31.1509H168.08V38.9385H175.72V31.1509Z" fill="black"/>
<path d="M191 31.1509H183.36V38.9385H191V31.1509Z" fill="black"/>
<path d="M7.64001 38.9385H0V46.7261H7.64001V38.9385Z" fill="black"/>
<path d="M53.4798 38.9385H45.8398V46.7261H53.4798V38.9385Z" fill="black"/>
<path d="M76.4003 38.9385H68.7603V46.7261H76.4003V38.9385Z" fill="black"/>
<path d="M84.0399 38.9385H76.3999V46.7261H84.0399V38.9385Z" fill="black"/>
<path d="M91.68 38.9385H84.04V46.7261H91.68V38.9385Z" fill="black"/>
<path d="M106.96 38.9385H99.3198V46.7261H106.96V38.9385Z" fill="black"/>
<path d="M114.6 38.9385H106.96V46.7261H114.6V38.9385Z" fill="black"/>
<path d="M129.88 38.9385H122.24V46.7261H129.88V38.9385Z" fill="black"/>
<path d="M145.16 38.9385H137.52V46.7261H145.16V38.9385Z" fill="black"/>
<path d="M191 38.9385H183.36V46.7261H191V38.9385Z" fill="black"/>
<path d="M7.64001 46.7256H0V54.5132H7.64001V46.7256Z" fill="black"/>
<path d="M15.2797 46.7256H7.63965V54.5132H15.2797V46.7256Z" fill="black"/>
<path d="M22.9202 46.7256H15.2803V54.5132H22.9202V46.7256Z" fill="black"/>
<path d="M30.5599 46.7256H22.9199V54.5132H30.5599V46.7256Z" fill="black"/>
<path d="M38.2001 46.7256H30.5601V54.5132H38.2001V46.7256Z" fill="black"/>
<path d="M45.8397 46.7256H38.1997V54.5132H45.8397V46.7256Z" fill="black"/>
<path d="M53.4798 46.7256H45.8398V54.5132H53.4798V46.7256Z" fill="black"/>
<path d="M68.7596 46.7256H61.1196V54.5132H68.7596V46.7256Z" fill="black"/>
<path d="M84.0399 46.7256H76.3999V54.5132H84.0399V46.7256Z" fill="black"/>
<path d="M99.3201 46.7256H91.6802V54.5132H99.3201V46.7256Z" fill="black"/>
<path d="M114.6 46.7256H106.96V54.5132H114.6V46.7256Z" fill="black"/>
<path d="M129.88 46.7256H122.24V54.5132H129.88V46.7256Z" fill="black"/>
<path d="M145.16 46.7256H137.52V54.5132H145.16V46.7256Z" fill="black"/>
<path d="M152.8 46.7256H145.16V54.5132H152.8V46.7256Z" fill="black"/>
<path d="M160.44 46.7256H152.8V54.5132H160.44V46.7256Z" fill="black"/>
<path d="M168.079 46.7256H160.439V54.5132H168.079V46.7256Z" fill="black"/>
<path d="M175.72 46.7256H168.08V54.5132H175.72V46.7256Z" fill="black"/>
<path d="M183.36 46.7256H175.72V54.5132H183.36V46.7256Z" fill="black"/>
<path d="M191 46.7256H183.36V54.5132H191V46.7256Z" fill="black"/>
<path d="M68.7596 54.5132H61.1196V62.3008H68.7596V54.5132Z" fill="black"/>
<path d="M76.4003 54.5132H68.7603V62.3008H76.4003V54.5132Z" fill="black"/>
<path d="M114.6 54.5132H106.96V62.3008H114.6V54.5132Z" fill="black"/>
<path d="M122.24 54.5132H114.6V62.3008H122.24V54.5132Z" fill="black"/>
<path d="M7.64001 62.3013H0V70.0889H7.64001V62.3013Z" fill="black"/>
<path d="M30.5599 62.3013H22.9199V70.0889H30.5599V62.3013Z" fill="black"/>
<path d="M38.2001 62.3013H30.5601V70.0889H38.2001V62.3013Z" fill="black"/>
<path d="M45.8397 62.3013H38.1997V70.0889H45.8397V62.3013Z" fill="black"/>
<path d="M53.4798 62.3013H45.8398V70.0889H53.4798V62.3013Z" fill="black"/>
<path d="M61.1199 62.3013H53.48V70.0889H61.1199V62.3013Z" fill="black"/>
<path d="M68.7596 62.3013H61.1196V70.0889H68.7596V62.3013Z" fill="black"/>
<path d="M76.4003 62.3013H68.7603V70.0889H76.4003V62.3013Z" fill="black"/>
<path d="M91.68 62.3013H84.04V70.0889H91.68V62.3013Z" fill="black"/>
<path d="M114.6 62.3013H106.96V70.0889H114.6V62.3013Z" fill="black"/>
<path d="M129.88 62.3013H122.24V70.0889H129.88V62.3013Z" fill="black"/>
<path d="M137.52 62.3013H129.88V70.0889H137.52V62.3013Z" fill="black"/>
<path d="M145.16 62.3013H137.52V70.0889H145.16V62.3013Z" fill="black"/>
<path d="M160.44 62.3013H152.8V70.0889H160.44V62.3013Z" fill="black"/>
<path d="M191 62.3013H183.36V70.0889H191V62.3013Z" fill="black"/>
<path d="M7.64001 70.0889H0V77.8765H7.64001V70.0889Z" fill="black"/>
<path d="M15.2797 70.0889H7.63965V77.8765H15.2797V70.0889Z" fill="black"/>
<path d="M22.9202 70.0889H15.2803V77.8765H22.9202V70.0889Z" fill="black"/>
<path d="M38.2001 70.0889H30.5601V77.8765H38.2001V70.0889Z" fill="black"/>
<path d="M45.8397 70.0889H38.1997V77.8765H45.8397V70.0889Z" fill="black"/>
<path d="M61.1199 70.0889H53.48V77.8765H61.1199V70.0889Z" fill="black"/>
<path d="M91.68 70.0889H84.04V77.8765H91.68V70.0889Z" fill="black"/>
<path d="M106.96 70.0889H99.3198V77.8765H106.96V70.0889Z" fill="black"/>
<path d="M145.16 70.0889H137.52V77.8765H145.16V70.0889Z" fill="black"/>
<path d="M152.8 70.0889H145.16V77.8765H152.8V70.0889Z" fill="black"/>
<path d="M168.079 70.0889H160.439V77.8765H168.079V70.0889Z" fill="black"/>
<path d="M191 70.0889H183.36V77.8765H191V70.0889Z" fill="black"/>
<path d="M7.64001 77.8765H0V85.6641H7.64001V77.8765Z" fill="black"/>
<path d="M22.9202 77.8765H15.2803V85.6641H22.9202V77.8765Z" fill="black"/>
<path d="M38.2001 77.8765H30.5601V85.6641H38.2001V77.8765Z" fill="black"/>
<path d="M45.8397 77.8765H38.1997V85.6641H45.8397V77.8765Z" fill="black"/>
<path d="M53.4798 77.8765H45.8398V85.6641H53.4798V77.8765Z" fill="black"/>
<path d="M84.0399 77.8765H76.3999V85.6641H84.0399V77.8765Z" fill="black"/>
<path d="M106.96 77.8765H99.3198V85.6641H106.96V77.8765Z" fill="black"/>
<path d="M122.24 77.8765H114.6V85.6641H122.24V77.8765Z" fill="black"/>
<path d="M137.52 77.8765H129.88V85.6641H137.52V77.8765Z" fill="black"/>
<path d="M145.16 77.8765H137.52V85.6641H145.16V77.8765Z" fill="black"/>
<path d="M152.8 77.8765H145.16V85.6641H152.8V77.8765Z" fill="black"/>
<path d="M168.079 77.8765H160.439V85.6641H168.079V77.8765Z" fill="black"/>
<path d="M175.72 77.8765H168.08V85.6641H175.72V77.8765Z" fill="black"/>
<path d="M183.36 77.8765H175.72V85.6641H183.36V77.8765Z" fill="black"/>
<path d="M191 77.8765H183.36V85.6641H191V77.8765Z" fill="black"/>
<path d="M7.64001 85.6641H0V93.4517H7.64001V85.6641Z" fill="black"/>
<path d="M22.9202 85.6641H15.2803V93.4517H22.9202V85.6641Z" fill="black"/>
<path d="M30.5599 85.6641H22.9199V93.4517H30.5599V85.6641Z" fill="black"/>
<path d="M68.7596 85.6641H61.1196V93.4517H68.7596V85.6641Z" fill="black"/>
<path d="M76.4003 85.6641H68.7603V93.4517H76.4003V85.6641Z" fill="black"/>
<path d="M84.0399 85.6641H76.3999V93.4517H84.0399V85.6641Z" fill="black"/>
<path d="M114.6 85.6641H106.96V93.4517H114.6V85.6641Z" fill="black"/>
<path d="M122.24 85.6641H114.6V93.4517H122.24V85.6641Z" fill="black"/>
<path d="M160.44 85.6641H152.8V93.4517H160.44V85.6641Z" fill="black"/>
<path d="M175.72 85.6641H168.08V93.4517H175.72V85.6641Z" fill="black"/>
<path d="M183.36 85.6641H175.72V93.4517H183.36V85.6641Z" fill="black"/>
<path d="M7.64001 93.4517H0V101.239H7.64001V93.4517Z" fill="black"/>
<path d="M22.9202 93.4521H15.2803V101.24H22.9202V93.4521Z" fill="black"/>
<path d="M30.5599 93.4521H22.9199V101.24H30.5599V93.4521Z" fill="black"/>
<path d="M38.2001 93.4521H30.5601V101.24H38.2001V93.4521Z" fill="black"/>
<path d="M45.8397 93.4521H38.1997V101.24H45.8397V93.4521Z" fill="black"/>
<path d="M53.4798 93.4521H45.8398V101.24H53.4798V93.4521Z" fill="black"/>
<path d="M61.1199 93.4521H53.48V101.24H61.1199V93.4521Z" fill="black"/>
<path d="M68.7596 93.4521H61.1196V101.24H68.7596V93.4521Z" fill="black"/>
<path d="M84.0399 93.4521H76.3999V101.24H84.0399V93.4521Z" fill="black"/>
<path d="M91.68 93.4521H84.04V101.24H91.68V93.4521Z" fill="black"/>
<path d="M106.96 93.4521H99.3198V101.24H106.96V93.4521Z" fill="black"/>
<path d="M114.6 93.4521H106.96V101.24H114.6V93.4521Z" fill="black"/>
<path d="M129.88 93.4521H122.24V101.24H129.88V93.4521Z" fill="black"/>
<path d="M152.8 93.4521H145.16V101.24H152.8V93.4521Z" fill="black"/>
<path d="M168.079 93.4521H160.439V101.24H168.079V93.4521Z" fill="black"/>
<path d="M175.72 93.4521H168.08V101.24H175.72V93.4521Z" fill="black"/>
<path d="M191 93.4521H183.36V101.24H191V93.4521Z" fill="black"/>
<path d="M7.64001 101.239H0V109.027H7.64001V101.239Z" fill="black"/>
<path d="M15.2797 101.24H7.63965V109.027H15.2797V101.24Z" fill="black"/>
<path d="M61.1199 101.24H53.48V109.027H61.1199V101.24Z" fill="black"/>
<path d="M68.7596 101.24H61.1196V109.027H68.7596V101.24Z" fill="black"/>
<path d="M76.4003 101.24H68.7603V109.027H76.4003V101.24Z" fill="black"/>
<path d="M99.3201 101.24H91.6802V109.027H99.3201V101.24Z" fill="black"/>
<path d="M114.6 101.24H106.96V109.027H114.6V101.24Z" fill="black"/>
<path d="M122.24 101.24H114.6V109.027H122.24V101.24Z" fill="black"/>
<path d="M129.88 101.24H122.24V109.027H129.88V101.24Z" fill="black"/>
<path d="M137.52 101.24H129.88V109.027H137.52V101.24Z" fill="black"/>
<path d="M160.44 101.24H152.8V109.027H160.44V101.24Z" fill="black"/>
<path d="M175.72 101.24H168.08V109.027H175.72V101.24Z" fill="black"/>
<path d="M183.36 101.24H175.72V109.027H183.36V101.24Z" fill="black"/>
<path d="M191 101.24H183.36V109.027H191V101.24Z" fill="black"/>
<path d="M7.64001 109.027H0V116.815H7.64001V109.027Z" fill="black"/>
<path d="M15.2797 109.027H7.63965V116.815H15.2797V109.027Z" fill="black"/>
<path d="M22.9202 109.027H15.2803V116.815H22.9202V109.027Z" fill="black"/>
<path d="M53.4798 109.027H45.8398V116.815H53.4798V109.027Z" fill="black"/>
<path d="M76.4003 109.027H68.7603V116.815H76.4003V109.027Z" fill="black"/>
<path d="M91.68 109.027H84.04V116.815H91.68V109.027Z" fill="black"/>
<path d="M99.3201 109.027H91.6802V116.815H99.3201V109.027Z" fill="black"/>
<path d="M114.6 109.027H106.96V116.815H114.6V109.027Z" fill="black"/>
<path d="M137.52 109.027H129.88V116.815H137.52V109.027Z" fill="black"/>
<path d="M152.8 109.027H145.16V116.815H152.8V109.027Z" fill="black"/>
<path d="M160.44 109.027H152.8V116.815H160.44V109.027Z" fill="black"/>
<path d="M175.72 109.027H168.08V116.815H175.72V109.027Z" fill="black"/>
<path d="M15.2797 116.814H7.63965V124.602H15.2797V116.814Z" fill="black"/>
<path d="M61.1199 116.814H53.48V124.602H61.1199V116.814Z" fill="black"/>
<path d="M68.7596 116.814H61.1196V124.602H68.7596V116.814Z" fill="black"/>
<path d="M76.4003 116.814H68.7603V124.602H76.4003V116.814Z" fill="black"/>
<path d="M84.0399 116.814H76.3999V124.602H84.0399V116.814Z" fill="black"/>
<path d="M91.68 116.814H84.04V124.602H91.68V116.814Z" fill="black"/>
<path d="M106.96 116.814H99.3198V124.602H106.96V116.814Z" fill="black"/>
<path d="M114.6 116.814H106.96V124.602H114.6V116.814Z" fill="black"/>
<path d="M122.24 116.814H114.6V124.602H122.24V116.814Z" fill="black"/>
<path d="M129.88 116.814H122.24V124.602H129.88V116.814Z" fill="black"/>
<path d="M183.36 116.814H175.72V124.602H183.36V116.814Z" fill="black"/>
<path d="M191 116.814H183.36V124.602H191V116.814Z" fill="black"/>
<path d="M7.64001 124.602H0V132.39H7.64001V124.602Z" fill="black"/>
<path d="M30.5599 124.602H22.9199V132.39H30.5599V124.602Z" fill="black"/>
<path d="M45.8397 124.602H38.1997V132.39H45.8397V124.602Z" fill="black"/>
<path d="M53.4798 124.602H45.8398V132.39H53.4798V124.602Z" fill="black"/>
<path d="M61.1199 124.602H53.48V132.39H61.1199V124.602Z" fill="black"/>
<path d="M68.7596 124.602H61.1196V132.39H68.7596V124.602Z" fill="black"/>
<path d="M76.4003 124.602H68.7603V132.39H76.4003V124.602Z" fill="black"/>
<path d="M84.0399 124.602H76.3999V132.39H84.0399V124.602Z" fill="black"/>
<path d="M99.3201 124.602H91.6802V132.39H99.3201V124.602Z" fill="black"/>
<path d="M106.96 124.602H99.3198V132.39H106.96V124.602Z" fill="black"/>
<path d="M122.24 124.602H114.6V132.39H122.24V124.602Z" fill="black"/>
<path d="M129.88 124.602H122.24V132.39H129.88V124.602Z" fill="black"/>
<path d="M137.52 124.602H129.88V132.39H137.52V124.602Z" fill="black"/>
<path d="M145.16 124.602H137.52V132.39H145.16V124.602Z" fill="black"/>
<path d="M152.8 124.602H145.16V132.39H152.8V124.602Z" fill="black"/>
<path d="M160.44 124.602H152.8V132.39H160.44V124.602Z" fill="black"/>
<path d="M168.079 124.602H160.439V132.39H168.079V124.602Z" fill="black"/>
<path d="M68.7596 132.39H61.1196V140.177H68.7596V132.39Z" fill="black"/>
<path d="M99.3201 132.39H91.6802V140.177H99.3201V132.39Z" fill="black"/>
<path d="M129.88 132.39H122.24V140.177H129.88V132.39Z" fill="black"/>
<path d="M160.44 132.39H152.8V140.177H160.44V132.39Z" fill="black"/>
<path d="M168.079 132.39H160.439V140.177H168.079V132.39Z" fill="black"/>
<path d="M191 132.39H183.36V140.177H191V132.39Z" fill="black"/>
<path d="M7.64001 140.177H0V147.965H7.64001V140.177Z" fill="black"/>
<path d="M15.2797 140.177H7.63965V147.965H15.2797V140.177Z" fill="black"/>
<path d="M22.9202 140.177H15.2803V147.965H22.9202V140.177Z" fill="black"/>
<path d="M30.5599 140.177H22.9199V147.965H30.5599V140.177Z" fill="black"/>
<path d="M38.2001 140.177H30.5601V147.965H38.2001V140.177Z" fill="black"/>
<path d="M45.8397 140.177H38.1997V147.965H45.8397V140.177Z" fill="black"/>
<path d="M53.4798 140.177H45.8398V147.965H53.4798V140.177Z" fill="black"/>
<path d="M68.7596 140.177H61.1196V147.965H68.7596V140.177Z" fill="black"/>
<path d="M84.0399 140.177H76.3999V147.965H84.0399V140.177Z" fill="black"/>
<path d="M99.3201 140.177H91.6802V147.965H99.3201V140.177Z" fill="black"/>
<path d="M114.6 140.177H106.96V147.965H114.6V140.177Z" fill="black"/>
<path d="M129.88 140.177H122.24V147.965H129.88V140.177Z" fill="black"/>
<path d="M145.16 140.177H137.52V147.965H145.16V140.177Z" fill="black"/>
<path d="M160.44 140.177H152.8V147.965H160.44V140.177Z" fill="black"/>
<path d="M168.079 140.177H160.439V147.965H168.079V140.177Z" fill="black"/>
<path d="M175.72 140.177H168.08V147.965H175.72V140.177Z" fill="black"/>
<path d="M191 140.177H183.36V147.965H191V140.177Z" fill="black"/>
<path d="M7.64001 147.965H0V155.753H7.64001V147.965Z" fill="black"/>
<path d="M53.4798 147.965H45.8398V155.753H53.4798V147.965Z" fill="black"/>
<path d="M68.7596 147.965H61.1196V155.753H68.7596V147.965Z" fill="black"/>
<path d="M84.0399 147.965H76.3999V155.753H84.0399V147.965Z" fill="black"/>
<path d="M91.68 147.965H84.04V155.753H91.68V147.965Z" fill="black"/>
<path d="M99.3201 147.965H91.6802V155.753H99.3201V147.965Z" fill="black"/>
<path d="M114.6 147.965H106.96V155.753H114.6V147.965Z" fill="black"/>
<path d="M129.88 147.965H122.24V155.753H129.88V147.965Z" fill="black"/>
<path d="M160.44 147.965H152.8V155.753H160.44V147.965Z" fill="black"/>
<path d="M168.079 147.965H160.439V155.753H168.079V147.965Z" fill="black"/>
<path d="M175.72 147.965H168.08V155.753H175.72V147.965Z" fill="black"/>
<path d="M191 147.965H183.36V155.753H191V147.965Z" fill="black"/>
<path d="M7.64001 155.752H0V163.54H7.64001V155.752Z" fill="black"/>
<path d="M22.9202 155.752H15.2803V163.54H22.9202V155.752Z" fill="black"/>
<path d="M30.5599 155.752H22.9199V163.54H30.5599V155.752Z" fill="black"/>
<path d="M38.2001 155.752H30.5601V163.54H38.2001V155.752Z" fill="black"/>
<path d="M53.4798 155.752H45.8398V163.54H53.4798V155.752Z" fill="black"/>
<path d="M68.7596 155.752H61.1196V163.54H68.7596V155.752Z" fill="black"/>
<path d="M76.4003 155.752H68.7603V163.54H76.4003V155.752Z" fill="black"/>
<path d="M84.0399 155.752H76.3999V163.54H84.0399V155.752Z" fill="black"/>
<path d="M91.68 155.752H84.04V163.54H91.68V155.752Z" fill="black"/>
<path d="M106.96 155.752H99.3198V163.54H106.96V155.752Z" fill="black"/>
<path d="M114.6 155.752H106.96V163.54H114.6V155.752Z" fill="black"/>
<path d="M129.88 155.752H122.24V163.54H129.88V155.752Z" fill="black"/>
<path d="M137.52 155.752H129.88V163.54H137.52V155.752Z" fill="black"/>
<path d="M145.16 155.752H137.52V163.54H145.16V155.752Z" fill="black"/>
<path d="M152.8 155.752H145.16V163.54H152.8V155.752Z" fill="black"/>
<path d="M160.44 155.752H152.8V163.54H160.44V155.752Z" fill="black"/>
<path d="M191 155.752H183.36V163.54H191V155.752Z" fill="black"/>
<path d="M7.64001 163.541H0V171.328H7.64001V163.541Z" fill="black"/>
<path d="M22.9202 163.541H15.2803V171.328H22.9202V163.541Z" fill="black"/>
<path d="M30.5599 163.541H22.9199V171.328H30.5599V163.541Z" fill="black"/>
<path d="M38.2001 163.541H30.5601V171.328H38.2001V163.541Z" fill="black"/>
<path d="M53.4798 163.541H45.8398V171.328H53.4798V163.541Z" fill="black"/>
<path d="M68.7596 163.541H61.1196V171.328H68.7596V163.541Z" fill="black"/>
<path d="M137.52 163.541H129.88V171.328H137.52V163.541Z" fill="black"/>
<path d="M168.079 163.541H160.439V171.328H168.079V163.541Z" fill="black"/>
<path d="M175.72 163.541H168.08V171.328H175.72V163.541Z" fill="black"/>
<path d="M183.36 163.541H175.72V171.328H183.36V163.541Z" fill="black"/>
<path d="M7.64001 171.328H0V179.116H7.64001V171.328Z" fill="black"/>
<path d="M22.9202 171.328H15.2803V179.116H22.9202V171.328Z" fill="black"/>
<path d="M30.5599 171.328H22.9199V179.116H30.5599V171.328Z" fill="black"/>
<path d="M38.2001 171.328H30.5601V179.116H38.2001V171.328Z" fill="black"/>
<path d="M53.4798 171.328H45.8398V179.116H53.4798V171.328Z" fill="black"/>
<path d="M91.68 171.328H84.04V179.116H91.68V171.328Z" fill="black"/>
<path d="M99.3201 171.328H91.6802V179.116H99.3201V171.328Z" fill="black"/>
<path d="M106.96 171.328H99.3198V179.116H106.96V171.328Z" fill="black"/>
<path d="M114.6 171.328H106.96V179.116H114.6V171.328Z" fill="black"/>
<path d="M122.24 171.328H114.6V179.116H122.24V171.328Z" fill="black"/>
<path d="M129.88 171.328H122.24V179.116H129.88V171.328Z" fill="black"/>
<path d="M152.8 171.328H145.16V179.116H152.8V171.328Z" fill="black"/>
<path d="M160.44 171.328H152.8V179.116H160.44V171.328Z" fill="black"/>
<path d="M168.079 171.328H160.439V179.116H168.079V171.328Z" fill="black"/>
<path d="M183.36 171.328H175.72V179.116H183.36V171.328Z" fill="black"/>
<path d="M191 171.328H183.36V179.116H191V171.328Z" fill="black"/>
<path d="M7.64001 179.116H0V186.904H7.64001V179.116Z" fill="black"/>
<path d="M53.4798 179.116H45.8398V186.904H53.4798V179.116Z" fill="black"/>
<path d="M76.4003 179.116H68.7603V186.904H76.4003V179.116Z" fill="black"/>
<path d="M99.3201 179.116H91.6802V186.904H99.3201V179.116Z" fill="black"/>
<path d="M122.24 179.116H114.6V186.904H122.24V179.116Z" fill="black"/>
<path d="M129.88 179.116H122.24V186.904H129.88V179.116Z" fill="black"/>
<path d="M152.8 179.116H145.16V186.904H152.8V179.116Z" fill="black"/>
<path d="M168.079 179.116H160.439V186.904H168.079V179.116Z" fill="black"/>
<path d="M175.72 179.116H168.08V186.904H175.72V179.116Z" fill="black"/>
<path d="M183.36 179.116H175.72V186.904H183.36V179.116Z" fill="black"/>
<path d="M191 179.116H183.36V186.904H191V179.116Z" fill="black"/>
<path d="M7.64001 186.903H0V194.691H7.64001V186.903Z" fill="black"/>
<path d="M15.2797 186.903H7.63965V194.691H15.2797V186.903Z" fill="black"/>
<path d="M22.9202 186.903H15.2803V194.691H22.9202V186.903Z" fill="black"/>
<path d="M30.5599 186.903H22.9199V194.691H30.5599V186.903Z" fill="black"/>
<path d="M38.2001 186.903H30.5601V194.691H38.2001V186.903Z" fill="black"/>
<path d="M45.8397 186.903H38.1997V194.691H45.8397V186.903Z" fill="black"/>
<path d="M53.4798 186.903H45.8398V194.691H53.4798V186.903Z" fill="black"/>
<path d="M68.7596 186.903H61.1196V194.691H68.7596V186.903Z" fill="black"/>
<path d="M99.3201 186.903H91.6802V194.691H99.3201V186.903Z" fill="black"/>
<path d="M129.88 186.903H122.24V194.691H129.88V186.903Z" fill="black"/>
<path d="M160.44 186.903H152.8V194.691H160.44V186.903Z" fill="black"/>
<path d="M168.079 186.903H160.439V194.691H168.079V186.903Z" fill="black"/>
<path d="M191 186.903H183.36V194.691H191V186.903Z" fill="black"/>
</svg>
